# Blender 5.1.1
# www.blender.org
o Grid
v -100.000000 0.000000 -100.000000
v -100.000000 2.000000 -79.999992
v -100.000000 4.000000 -60.000004
v -100.000000 3.000000 -39.999996
v -100.000000 5.000000 -19.999998
v -100.000000 8.968583 2.863166
v -100.000000 10.528091 21.989000
v -100.000000 9.700000 42.402851
v -100.000000 11.291881 62.335979
v -100.000000 14.463612 82.099686
v -100.000000 12.000000 100.000000
v -79.999992 -2.000000 -100.000000
v -86.639008 3.594175 -77.118713
v -83.523712 4.453687 -56.788742
v -78.432381 7.039939 -39.297047
v -79.999992 0.800000 -19.999998
v -76.038452 10.217440 1.899369
v -81.414665 12.160236 16.761902
v -77.527916 10.505119 42.156368
v -76.956955 13.263007 61.310333
v -76.626114 13.494876 82.042984
v -79.999992 10.000000 100.000000
v -60.000004 0.000000 -100.000000
v -63.810074 -2.000000 -78.119293
v -61.440636 6.460540 -57.776505
v -59.590576 5.100951 -39.733753
v -60.000004 2.300000 -19.999998
v -66.748650 10.128004 8.507975
v -62.252705 10.938766 15.932398
v -62.041443 10.988781 34.319157
v -57.447971 11.319572 61.002995
v -57.153111 14.208300 80.347855
v -60.000004 12.000000 100.000000
v -39.999996 -2.000000 -100.000000
v -40.932102 -4.000000 -78.918114
v -42.539745 7.400876 -58.878864
v -34.324409 3.278261 -38.076908
v -39.999996 3.300000 -19.999998
v -44.435467 9.520993 1.387044
v -46.311302 9.118082 14.251063
v -40.407242 8.640974 35.801487
v -38.360531 8.293400 60.146118
v -38.257782 11.304095 78.940392
v -39.999996 10.000000 100.000000
v -19.999998 -6.000000 -100.000000
v -19.999643 -2.744069 -80.666962
v -14.796136 1.675758 -58.304661
v -30.700891 3.401500 -39.405952
v -23.199997 2.900000 -12.799997
v -19.717264 9.287122 5.717203
v -19.078983 10.659789 18.198629
v -20.104834 9.686963 38.346081
v -19.247454 8.594769 58.547771
v -20.089359 12.382757 76.844170
v -19.999998 6.000000 100.000000
v 0.000000 -5.000000 -100.000000
v 6.191570 2.857072 -76.731667
v -5.990675 2.460923 -60.416634
v -1.846924 2.838306 -39.829350
v -5.499999 6.000000 -27.299997
v -0.511270 8.250000 -0.266294
v -0.566273 8.775847 18.493168
v 0.019977 8.250000 38.889458
v 0.874228 8.253190 58.608215
v 1.977856 13.648445 76.837112
v 0.000000 7.000000 100.000000
v 20.000004 -6.000000 -100.000000
v 15.143169 2.516062 -81.459335
v 15.756723 3.560815 -68.631050
v 18.994509 2.848730 -39.193630
v 21.669159 5.000000 -21.517271
v 19.484884 9.372472 1.766068
v 18.950745 9.152434 16.376328
v 20.241114 8.300000 37.294212
v 20.662107 9.448126 54.876457
v 20.575968 11.717727 78.012001
v 20.000004 6.000000 100.000000
v 39.999996 -2.000000 -100.000000
v 37.097355 2.094647 -80.734970
v 36.347431 2.848187 -67.599464
v 39.081944 1.369986 -39.937534
v 33.648304 5.167318 -15.976581
v 38.286282 9.166421 1.752914
v 36.560825 11.247441 16.894884
v 34.469589 10.516642 37.798950
v 39.596619 10.378572 54.558521
v 40.306995 9.588804 74.858459
v 39.999996 10.000000 100.000000
v 60.000004 0.000000 -100.000000
v 58.708405 2.650260 -79.928146
v 57.761677 5.243534 -61.916222
v 54.420258 -1.774228 -45.148903
v 51.999992 4.300000 -18.899996
v 57.746674 8.422370 2.557563
v 54.149414 13.318848 16.410709
v 51.394184 10.190820 38.161888
v 56.588917 10.848682 54.805458
v 59.374664 8.958036 75.347099
v 60.000004 12.000000 100.000000
v 80.000008 -2.000000 -100.000000
v 80.161789 1.554017 -79.397148
v 78.785667 3.953385 -61.093159
v 79.516846 2.501917 -40.384102
v 80.000008 6.200000 -19.999998
v 77.661812 7.028704 -11.211122
v 78.176788 13.818566 13.307974
v 76.268509 16.514893 35.072590
v 70.215164 16.072176 59.560883
v 77.976105 12.511905 73.690887
v 80.000008 10.000000 100.000000
v 100.000000 0.000000 -100.000000
v 100.000000 2.000000 -79.999992
v 100.000000 4.000000 -59.999996
v 100.000000 3.000000 -39.999996
v 100.000000 5.000000 -19.999998
v 100.000000 8.968600 2.863200
v 100.000000 10.528000 21.989435
v 100.000000 9.700000 42.402996
v 100.000000 11.292000 62.335999
v 100.000000 14.464000 82.099998
v 100.000000 12.000000 100.000000
vn 0.0990 0.9901 -0.0990
vn -0.0968 0.9904 -0.0990
vn -0.0372 0.9981 0.0499
vn -0.1854 0.9393 0.2887
vn 0.1868 0.8898 -0.4164
vn -0.0551 0.9952 -0.0811
vn -0.0663 0.9950 0.0750
vn -0.0366 0.9962 -0.0796
vn -0.0857 0.9963 -0.0098
vn 0.0414 0.9898 0.1362
vn -0.0992 0.9924 0.0734
vn 0.2341 0.9692 -0.0769
vn -0.0865 0.9927 0.0837
vn 0.1044 0.9438 0.3137
vn -0.0691 0.9209 -0.3835
vn 0.1487 0.9693 -0.1959
vn 0.0635 0.9980 -0.0034
vn -0.0345 0.9994 -0.0065
vn 0.0957 0.9843 -0.1484
vn -0.0270 0.9938 0.1078
vn 0.0989 0.9893 0.1076
vn 0.0589 0.8697 -0.4901
vn -0.0449 0.9958 0.0796
vn 0.0706 0.9973 0.0210
vn -0.0480 0.9602 -0.2750
vn 0.0390 0.9986 0.0370
vn 0.1131 0.9936 -0.0040
vn 0.1100 0.9934 -0.0312
vn 0.1478 0.9764 -0.1572
vn 0.1602 0.9781 0.1331
vn 0.1935 0.9675 -0.1629
vn -0.0737 0.9815 -0.1768
vn 0.1999 0.9766 0.0790
vn -0.0245 0.9994 0.0258
vn 0.1719 0.9209 -0.3500
vn 0.0288 0.9934 -0.1107
vn -0.0630 0.9970 0.0449
vn -0.0584 0.9967 0.0564
vn -0.0288 0.9870 -0.1580
vn -0.0526 0.9970 0.0574
vn -0.0492 0.9849 -0.1659
vn -0.1854 0.9713 -0.1488
vn -0.1350 0.9700 -0.2022
vn 0.0154 0.9705 -0.2404
vn -0.3576 0.9015 -0.2437
vn 0.0452 0.9986 -0.0279
vn 0.1003 0.9935 0.0531
vn 0.0698 0.9963 0.0509
vn 0.0172 0.9792 -0.2019
vn -0.0550 0.9610 0.2711
vn 0.0456 0.9123 -0.4071
vn -0.0048 0.9967 -0.0809
vn -0.0397 0.9988 0.0285
vn 0.0032 0.9926 -0.1213
vn 0.0564 0.9941 -0.0931
vn -0.0532 0.9982 -0.0281
vn -0.0148 0.9990 0.0416
vn -0.0025 1.0000 -0.0001
vn -0.0783 0.9921 -0.0976
vn 0.0815 0.9561 0.2814
vn -0.1753 0.8764 -0.4485
vn 0.0210 0.9982 -0.0561
vn 0.0336 0.9992 0.0205
vn 0.0675 0.9877 -0.1412
vn 0.0686 0.9817 -0.1779
vn 0.0108 0.9908 -0.1349
vn -0.1188 0.9927 0.0228
vn -0.1515 0.9866 -0.0608
vn -0.0484 0.9980 0.0405
vn 0.1049 0.9944 -0.0150
vn -0.0970 0.9705 -0.2209
vn -0.0235 0.9980 -0.0586
vn -0.1944 0.9181 0.3455
vn 0.1264 0.9689 -0.2126
vn 0.0157 0.9811 -0.1927
vn 0.0433 0.9904 -0.1312
vn -0.1125 0.9854 0.1275
vn 0.0202 0.9987 -0.0458
vn -0.0282 0.9988 0.0398
vn 0.0360 0.9917 -0.1233
vn 0.0981 0.9806 -0.1699
vn 0.0537 0.9906 -0.1258
vn 0.0585 0.9960 0.0677
vn -0.1199 0.9647 -0.2343
vn -0.0717 0.9911 -0.1125
vn -0.1147 0.9580 -0.2629
vn -0.0369 0.9913 -0.1260
vn -0.2419 0.9696 0.0372
vn -0.4515 0.7744 0.4431
vn -0.1774 0.9783 0.1071
vn -0.0981 0.9808 -0.1684
vn -0.0263 0.9909 -0.1319
vn -0.0048 0.9987 0.0499
vn -0.0223 0.9948 -0.0995
vn 0.0597 0.9952 -0.0779
vn 0.0852 0.9598 -0.2676
vn 0.1333 0.9903 0.0402
vn 0.2968 0.9519 -0.0760
vn 0.1707 0.9729 -0.1561
vn -0.1385 0.9811 0.1351
vn -0.0605 0.9654 -0.2536
vn -0.0199 0.9990 -0.0392
vn -0.1804 0.9793 -0.0923
vn 0.2045 0.9740 -0.0974
vn -0.0581 0.9836 -0.1707
vn -0.1352 0.9750 -0.1764
vn -0.0353 0.9986 0.0405
vn -0.0906 0.9861 -0.1393
vn 0.0405 0.9866 -0.1583
vn 0.0973 0.9733 0.2077
vn 0.2276 0.9591 -0.1684
vn -0.1005 0.9227 -0.3721
vn 0.0969 0.9801 -0.1731
vn -0.0741 0.9876 0.1386
vn 0.1684 0.9600 -0.2237
vn 0.0586 0.9924 -0.1085
vn 0.0016 0.9979 0.0648
vn 0.0958 0.9848 -0.1447
vn -0.0375 0.9992 -0.0106
vn -0.0980 0.9801 0.1723
vn 0.0901 0.9911 0.0980
vn -0.0679 0.9240 -0.3764
vn 0.0597 0.9834 0.1713
vn -0.0495 0.9890 0.1394
vn -0.0671 0.9542 -0.2915
vn 0.0948 0.9818 -0.1646
vn 0.1084 0.9941 -0.0077
vn 0.1566 0.9877 0.0009
vn 0.1394 0.9791 -0.1483
vn 0.0993 0.9926 0.0697
vn -0.0520 0.9944 0.0920
vn 0.1873 0.8602 -0.4743
vn 0.0332 0.9828 0.1817
vn 0.0214 0.9998 0.0055
vn 0.0561 0.9618 -0.2681
vn -0.0598 0.9980 0.0225
vn -0.0561 0.9977 0.0375
vn -0.0145 0.9998 0.0155
vn -0.0816 0.9752 -0.2057
vn 0.1894 0.9468 0.2602
vn -0.1610 0.9473 -0.2770
vn -0.1009 0.9936 -0.0512
vn 0.0192 0.9996 -0.0222
vn -0.1285 0.9902 0.0549
vn 0.0264 0.9958 -0.0878
vn 0.1024 0.9882 -0.1139
vn 0.0706 0.9972 0.0237
vn 0.0170 0.9999 -0.0009
vn -0.0551 0.9583 -0.2803
vn -0.0481 0.9629 0.2656
vn -0.1168 0.9500 -0.2897
vn -0.0576 0.9982 -0.0187
vn 0.0001 0.9998 -0.0183
vn 0.0828 0.9717 -0.2211
vn -0.0360 0.9816 -0.1877
vn -0.0177 0.9997 0.0144
vn -0.0004 0.9997 0.0258
vn -0.0720 0.9954 -0.0633
vn 0.1169 0.9504 -0.2884
vn 0.0483 0.9664 0.2526
vn 0.0255 0.9786 -0.2042
vn 0.0386 0.9958 -0.0829
vn 0.0750 0.9961 0.0458
vn 0.0451 0.9908 -0.1274
vn 0.0105 0.9748 -0.2226
vn -0.1184 0.9929 0.0106
vn -0.1555 0.9866 0.0498
vn -0.0487 0.9985 0.0231
vn 0.0915 0.9911 -0.0969
vn -0.1903 0.9513 0.2424
vn -0.0205 0.9910 -0.1322
vn -0.0717 0.9867 -0.1458
vn 0.2109 0.9770 0.0314
vn 0.0226 0.9882 -0.1515
vn 0.0467 0.9717 -0.2314
vn -0.1189 0.9260 -0.3582
vn 0.0184 0.9992 0.0368
vn -0.0279 0.9995 0.0168
vn 0.0307 0.9957 0.0875
vn -0.0995 0.9949 -0.0175
vn 0.0538 0.9904 -0.1273
vn 0.0661 0.9881 -0.1388
vn -0.2202 0.9147 0.3389
vn -0.0735 0.9816 -0.1763
vn -0.0521 0.9832 -0.1749
vn -0.0643 0.9355 -0.3474
vn -0.2321 0.9665 0.1096
vn -0.3369 0.9392 -0.0663
vn -0.1766 0.9777 0.1139
vn 0.0987 0.9873 -0.1243
vn -0.0254 0.9947 -0.0995
vn 0.0029 0.9950 -0.0995
vn -0.0256 0.9972 0.0708
vn 0.0589 0.9820 -0.1795
vn 0.0222 0.9850 -0.1710
vn 0.1796 0.9805 -0.0799
vn 0.3008 0.9493 -0.0912
vn 0.1532 0.9866 0.0557
vn -0.2136 0.9131 0.3474
vn -0.0990 0.9898 0.1021
vt 5.025455 0.007013
vt 0.007013 5.025455
vt 0.007013 0.007013
vt 10.043896 0.007013
vt 5.025455 5.025455
vt 15.062337 0.007013
vt 10.043896 5.025455
vt 20.080778 5.025455
vt 15.062337 5.025455
vt 20.080778 0.007013
vt 25.099218 5.025455
vt 30.117661 0.007013
vt 25.099218 0.007013
vt 35.136086 5.025455
vt 30.117661 5.025455
vt 40.154526 0.007013
vt 35.136086 0.007013
vt 45.172966 5.025455
vt 40.154526 5.025455
vt 50.191406 0.007013
vt 45.172966 0.007013
vt 5.025455 10.043896
vt 0.007013 10.043896
vt 15.062337 10.043896
vt 10.043896 10.043896
vt 20.080778 10.043896
vt 30.117661 10.043896
vt 25.099218 10.043896
vt 35.136086 10.043896
vt 40.154526 10.043896
vt 45.172966 10.043896
vt 50.191406 10.043896
vt 0.007013 15.062337
vt 10.043896 15.062337
vt 5.025455 15.062337
vt 20.080778 15.062337
vt 15.062337 15.062337
vt 30.117661 15.062337
vt 25.099218 15.062337
vt 35.136086 15.062337
vt 45.172966 15.062337
vt 40.154526 15.062337
vt 5.025455 20.080778
vt 0.007013 20.080778
vt 10.043896 20.080778
vt 15.062337 20.080778
vt 20.080778 20.080778
vt 25.099218 20.080778
vt 30.117661 20.080778
vt 35.136086 20.080778
vt 40.154526 20.080778
vt 50.191406 15.062337
vt 45.172966 20.080778
vt 0.007013 25.099218
vt 5.025455 25.099218
vt 10.043896 25.099218
vt 20.080778 25.099218
vt 15.062337 25.099218
vt 30.117661 25.099218
vt 25.099218 25.099218
vt 35.136086 25.099218
vt 40.154526 25.099218
vt 50.191406 25.099218
vt 45.172966 25.099218
vt 5.025455 30.117661
vt 0.007013 30.117661
vt 10.043896 30.117661
vt 15.062337 30.117661
vt 20.080778 30.117661
vt 25.099218 30.117661
vt 35.136086 30.117661
vt 30.117661 30.117661
vt 45.172966 30.117661
vt 40.154526 30.117661
vt 0.007013 35.136101
vt 10.043896 35.136101
vt 5.025455 35.136101
vt 20.080778 35.136101
vt 15.062337 35.136101
vt 30.117661 35.136101
vt 25.099218 35.136101
vt 35.136086 35.136101
vt 45.172966 35.136101
vt 40.154526 35.136101
vt 50.191406 35.136101
vt 0.007013 40.154541
vt 5.025455 40.154541
vt 15.062337 40.154541
vt 10.043896 40.154541
vt 20.080778 40.154541
vt 25.099218 40.154541
vt 35.136086 40.154541
vt 30.117661 40.154541
vt 40.154526 40.154541
vt 50.191406 40.154541
vt 45.172966 40.154541
vt 5.025455 45.172981
vt 0.007013 45.172981
vt 10.043896 45.172981
vt 15.062337 45.172981
vt 25.099218 45.172981
vt 20.080778 45.172981
vt 30.117661 45.172981
vt 35.136086 45.172981
vt 45.172966 45.172981
vt 40.154526 45.172981
vt 50.191406 45.172981
vt 0.007013 50.191422
vt 5.025455 50.191422
vt 15.062337 50.191422
vt 10.043896 50.191422
vt 20.080778 50.191422
vt 25.099218 50.191422
vt 35.136086 50.191422
vt 30.117661 50.191422
vt 40.154526 50.191422
vt 45.172966 50.191422
vt 50.191406 50.191422
vt 50.191406 5.025455
vt 50.191406 20.080778
vt 50.191406 30.117661
s 0
f 2/1/1 12/2/1 1/3/1
f 3/4/2 13/5/2 2/1/2
f 4/6/3 14/7/3 3/4/3
f 4/6/4 16/8/4 15/9/4
f 5/10/5 17/11/5 16/8/5
f 7/12/6 17/11/6 6/13/6
f 7/12/7 19/14/7 18/15/7
f 9/16/8 19/14/8 8/17/8
f 9/16/9 21/18/9 20/19/9
f 11/20/10 21/18/10 10/21/10
f 12/2/11 24/22/11 23/23/11
f 14/7/12 24/22/12 13/5/12
f 14/7/13 26/24/13 25/25/13
f 16/8/14 26/24/14 15/9/14
f 17/11/15 27/26/15 16/8/15
f 17/11/16 29/27/16 28/28/16
f 18/15/17 30/29/17 29/27/17
f 19/14/18 31/30/18 30/29/18
f 20/19/19 32/31/19 31/30/19
f 21/18/20 33/32/20 32/31/20
f 24/22/21 34/33/21 23/23/21
f 24/22/22 36/34/22 35/35/22
f 26/24/23 36/34/23 25/25/23
f 26/24/24 38/36/24 37/37/24
f 28/28/25 38/36/25 27/26/25
f 28/28/26 40/38/26 39/39/26
f 30/29/27 40/38/27 29/27/27
f 31/30/28 41/40/28 30/29/28
f 31/30/29 43/41/29 42/42/29
f 33/32/30 43/41/30 32/31/30
f 34/33/31 46/43/31 45/44/31
f 35/35/32 47/45/32 46/43/32
f 36/34/33 48/46/33 47/45/33
f 37/37/34 49/47/34 48/46/34
f 38/36/35 50/48/35 49/47/35
f 39/39/36 51/49/36 50/48/36
f 40/38/37 52/50/37 51/49/37
f 41/40/38 53/51/38 52/50/38
f 43/41/39 53/51/39 42/42/39
f 44/52/40 54/53/40 43/41/40
f 46/43/41 56/54/41 45/44/41
f 47/45/42 57/55/42 46/43/42
f 48/46/43 58/56/43 47/45/43
f 48/46/44 60/57/44 59/58/44
f 50/48/45 60/57/45 49/47/45
f 50/48/46 62/59/46 61/60/46
f 52/50/47 62/59/47 51/49/47
f 53/51/48 63/61/48 52/50/48
f 54/53/49 64/62/49 53/51/49
f 54/53/50 66/63/50 65/64/50
f 56/54/51 68/65/51 67/66/51
f 57/55/52 69/67/52 68/65/52
f 58/56/53 70/68/53 69/67/53
f 59/58/54 71/69/54 70/68/54
f 61/60/55 71/69/55 60/57/55
f 62/59/56 72/70/56 61/60/56
f 62/59/57 74/71/57 73/72/57
f 64/62/58 74/71/58 63/61/58
f 64/62/59 76/73/59 75/74/59
f 66/63/60 76/73/60 65/64/60
f 68/65/61 78/75/61 67/66/61
f 68/65/62 80/76/62 79/77/62
f 70/68/63 80/76/63 69/67/63
f 70/68/64 82/78/64 81/79/64
f 72/70/65 82/78/65 71/69/65
f 72/70/66 84/80/66 83/81/66
f 73/72/67 85/82/67 84/80/67
f 75/74/68 85/82/68 74/71/68
f 75/74/69 87/83/69 86/84/69
f 76/73/70 88/85/70 87/83/70
f 79/77/71 89/86/71 78/75/71
f 80/76/72 90/87/72 79/77/72
f 80/76/73 92/88/73 91/89/73
f 81/79/74 93/90/74 92/88/74
f 82/78/75 94/91/75 93/90/75
f 84/80/76 94/91/76 83/81/76
f 84/80/77 96/92/77 95/93/77
f 85/82/78 97/94/78 96/92/78
f 87/83/79 97/94/79 86/84/79
f 87/83/80 99/95/80 98/96/80
f 89/86/81 101/97/81 100/98/81
f 90/87/82 102/99/82 101/97/82
f 91/89/83 103/100/83 102/99/83
f 93/90/84 103/100/84 92/88/84
f 93/90/85 105/101/85 104/102/85
f 94/91/86 106/103/86 105/101/86
f 95/93/87 107/104/87 106/103/87
f 97/94/88 107/104/88 96/92/88
f 97/94/89 109/105/89 108/106/89
f 98/96/90 110/107/90 109/105/90
f 101/97/91 111/108/91 100/98/91
f 102/99/92 112/109/92 101/97/92
f 102/99/93 114/110/93 113/111/93
f 103/100/94 115/112/94 114/110/94
f 105/101/95 115/112/95 104/102/95
f 106/103/96 116/113/96 105/101/96
f 106/103/97 118/114/97 117/115/97
f 107/104/98 119/116/98 118/114/98
f 108/106/99 120/117/99 119/116/99
f 109/105/100 121/118/100 120/117/100
f 2/1/101 13/5/101 12/2/101
f 3/4/102 14/7/102 13/5/102
f 4/6/103 15/9/103 14/7/103
f 4/6/104 5/10/104 16/8/104
f 5/10/105 6/13/105 17/11/105
f 7/12/106 18/15/106 17/11/106
f 7/12/107 8/17/107 19/14/107
f 9/16/108 20/19/108 19/14/108
f 9/16/109 10/21/109 21/18/109
f 11/20/110 22/119/110 21/18/110
f 12/2/111 13/5/111 24/22/111
f 14/7/112 25/25/112 24/22/112
f 14/7/113 15/9/113 26/24/113
f 16/8/114 27/26/114 26/24/114
f 17/11/115 28/28/115 27/26/115
f 17/11/116 18/15/116 29/27/116
f 18/15/117 19/14/117 30/29/117
f 19/14/118 20/19/118 31/30/118
f 20/19/119 21/18/119 32/31/119
f 21/18/120 22/119/120 33/32/120
f 24/22/121 35/35/121 34/33/121
f 24/22/122 25/25/122 36/34/122
f 26/24/123 37/37/123 36/34/123
f 26/24/124 27/26/124 38/36/124
f 28/28/125 39/39/125 38/36/125
f 28/28/126 29/27/126 40/38/126
f 30/29/127 41/40/127 40/38/127
f 31/30/128 42/42/128 41/40/128
f 31/30/129 32/31/129 43/41/129
f 33/32/130 44/52/130 43/41/130
f 34/33/131 35/35/131 46/43/131
f 35/35/132 36/34/132 47/45/132
f 36/34/133 37/37/133 48/46/133
f 37/37/134 38/36/134 49/47/134
f 38/36/135 39/39/135 50/48/135
f 39/39/136 40/38/136 51/49/136
f 40/38/137 41/40/137 52/50/137
f 41/40/138 42/42/138 53/51/138
f 43/41/139 54/53/139 53/51/139
f 44/52/140 55/120/140 54/53/140
f 46/43/141 57/55/141 56/54/141
f 47/45/142 58/56/142 57/55/142
f 48/46/143 59/58/143 58/56/143
f 48/46/144 49/47/144 60/57/144
f 50/48/145 61/60/145 60/57/145
f 50/48/146 51/49/146 62/59/146
f 52/50/147 63/61/147 62/59/147
f 53/51/148 64/62/148 63/61/148
f 54/53/149 65/64/149 64/62/149
f 54/53/150 55/120/150 66/63/150
f 56/54/151 57/55/151 68/65/151
f 57/55/152 58/56/152 69/67/152
f 58/56/153 59/58/153 70/68/153
f 59/58/154 60/57/154 71/69/154
f 61/60/155 72/70/155 71/69/155
f 62/59/156 73/72/156 72/70/156
f 62/59/157 63/61/157 74/71/157
f 64/62/158 75/74/158 74/71/158
f 64/62/159 65/64/159 76/73/159
f 66/63/160 77/121/160 76/73/160
f 68/65/161 79/77/161 78/75/161
f 68/65/162 69/67/162 80/76/162
f 70/68/163 81/79/163 80/76/163
f 70/68/164 71/69/164 82/78/164
f 72/70/165 83/81/165 82/78/165
f 72/70/166 73/72/166 84/80/166
f 73/72/167 74/71/167 85/82/167
f 75/74/168 86/84/168 85/82/168
f 75/74/169 76/73/169 87/83/169
f 76/73/170 77/121/170 88/85/170
f 79/77/171 90/87/171 89/86/171
f 80/76/172 91/89/172 90/87/172
f 80/76/173 81/79/173 92/88/173
f 81/79/174 82/78/174 93/90/174
f 82/78/175 83/81/175 94/91/175
f 84/80/176 95/93/176 94/91/176
f 84/80/177 85/82/177 96/92/177
f 85/82/178 86/84/178 97/94/178
f 87/83/179 98/96/179 97/94/179
f 87/83/180 88/85/180 99/95/180
f 89/86/181 90/87/181 101/97/181
f 90/87/182 91/89/182 102/99/182
f 91/89/183 92/88/183 103/100/183
f 93/90/184 104/102/184 103/100/184
f 93/90/185 94/91/185 105/101/185
f 94/91/186 95/93/186 106/103/186
f 95/93/187 96/92/187 107/104/187
f 97/94/188 108/106/188 107/104/188
f 97/94/189 98/96/189 109/105/189
f 98/96/190 99/95/190 110/107/190
f 101/97/191 112/109/191 111/108/191
f 102/99/192 113/111/192 112/109/192
f 102/99/193 103/100/193 114/110/193
f 103/100/194 104/102/194 115/112/194
f 105/101/195 116/113/195 115/112/195
f 106/103/196 117/115/196 116/113/196
f 106/103/197 107/104/197 118/114/197
f 107/104/198 108/106/198 119/116/198
f 108/106/199 109/105/199 120/117/199
f 109/105/200 110/107/200 121/118/200
