# Blender 5.1.1
# www.blender.org
o Grid
v -50.000000 0.000000 -50.000000
v -50.000000 1.000000 -39.999996
v -50.000000 2.000000 -30.000002
v -50.000000 1.500000 -19.999998
v -50.000000 2.500000 -9.999999
v -50.000000 4.484292 1.431583
v -50.000000 5.264046 10.994500
v -50.000000 4.850000 21.201426
v -50.000000 5.645940 31.167990
v -50.000000 7.231806 41.049843
v -50.000000 7.500000 50.000000
v -39.999996 -1.000000 -50.000000
v -43.319504 1.797088 -38.559357
v -41.761856 2.226843 -28.394371
v -39.216190 2.500000 -19.648523
v -39.999996 2.000000 -9.999999
v -38.019226 5.108720 0.949684
v -40.707333 6.080118 8.380951
v -38.763958 5.252560 21.078184
v -38.478477 6.631504 30.655167
v -38.313057 6.747438 41.021492
v -39.999996 6.500000 50.000000
v -30.000002 0.000000 -50.000000
v -31.905037 1.000000 -39.059647
v -30.720318 2.500000 -28.888252
v -29.795288 2.550475 -19.866877
v -30.000002 1.150000 -9.999999
v -29.999998 5.064002 2.500000
v -31.126352 5.469383 7.966199
v -31.020721 5.494390 17.159578
v -28.723986 5.659786 30.501497
v -28.576555 7.104150 40.173927
v -30.000002 7.500000 50.000000
v -19.999998 -1.000000 -50.000000
v -20.466051 0.000000 -39.459057
v -21.269873 2.500000 -29.439432
v -17.162205 1.639130 -19.038454
v -19.999998 1.650000 -9.999999
v -22.217733 4.760497 0.693522
v -23.155651 4.559041 7.125532
v -20.203621 4.320487 17.900743
v -19.180265 4.146700 30.073059
v -19.128891 5.652048 39.470196
v -19.999998 6.500000 50.000000
v -9.999999 -3.000000 -50.000000
v -9.999822 -1.372035 -40.333481
v -7.398068 0.837879 -29.152330
v -15.350446 1.700750 -19.702976
v -10.514699 2.424748 -9.755457
v -11.042376 4.100000 1.245930
v -9.539492 5.329895 9.099315
v -10.052417 4.843482 19.173040
v -9.623727 4.297384 29.273886
v -10.044679 4.500000 38.422085
v -9.999999 4.500000 50.000000
v 0.000000 -2.500000 -50.000000
v 0.000000 -1.500000 -38.365833
v -2.995338 1.230462 -30.208317
v -0.923462 1.419153 -19.914675
v -2.750000 3.000000 -13.649999
v -0.255635 4.125000 -0.133147
v -0.283137 4.387924 9.246584
v 0.009989 5.000000 19.444729
v 0.437114 5.500000 29.304108
v 0.988928 4.500000 38.418556
v 0.000000 5.000000 50.000000
v 10.000002 -3.000000 -50.000000
v 7.571585 0.000000 -40.729668
v 7.878362 1.780407 -34.315525
v 9.497254 1.424365 -19.596815
v 10.834579 2.500000 -10.758636
v 9.742442 4.686236 0.883034
v 9.475372 4.576217 8.188164
v 10.120557 4.500000 18.647106
v 10.331054 4.724063 27.438229
v 10.287984 5.000000 39.006001
v 10.000002 4.500000 50.000000
v 19.999998 -1.000000 -50.000000
v 18.548677 1.047324 -40.367485
v 18.173716 1.424094 -33.799732
v 19.540972 0.684993 -19.968767
v 16.824152 2.583659 -7.988290
v 19.143141 4.583210 0.876457
v 18.280413 5.623721 8.447442
v 17.234795 5.000000 18.899475
v 19.798309 5.189286 27.279261
v 20.153498 4.794402 37.429230
v 19.999998 6.500000 50.000000
v 30.000002 0.000000 -50.000000
v 29.354202 1.325130 -39.964073
v 28.880838 1.000000 -30.958111
v 27.210129 0.500000 -22.574451
v 25.999996 2.150000 -9.449998
v 28.873337 5.000000 1.278781
v 27.074707 6.500000 8.205355
v 25.697092 6.000000 19.080944
v 28.294458 6.000000 27.402729
v 29.687330 5.000000 37.673550
v 30.000002 6.500000 50.000000
v 40.000004 -1.000000 -50.000000
v 40.080894 0.777008 -39.698574
v 39.392834 1.976693 -30.546579
v 39.758423 1.250958 -20.192051
v 40.000004 3.100000 -9.999999
v 38.830906 3.514352 -5.605561
v 39.088394 6.909283 6.653987
v 38.134254 8.257446 17.536295
v 40.125000 7.500000 29.780441
v 38.988052 6.255952 36.845444
v 40.000004 6.500000 50.000000
v 50.000000 0.000000 -50.000000
v 50.000000 1.000000 -39.999996
v 50.000000 2.000000 -29.999998
v 50.000000 1.500000 -19.999998
v 50.000000 2.500000 -9.999999
v 50.000000 4.484300 1.431600
v 50.000000 5.264000 10.994718
v 50.000000 4.850000 21.201498
v 50.000000 5.646000 31.167999
v 50.000000 7.232000 41.049999
v 50.000000 7.500000 50.000000
vn 0.0990 0.9901 -0.0990
vn -0.0968 0.9904 -0.0990
vn -0.0372 0.9981 0.0499
vn -0.0937 0.9946 0.0439
vn 0.0492 0.9841 -0.1708
vn -0.0551 0.9952 -0.0811
vn -0.0663 0.9950 0.0750
vn -0.0366 0.9962 -0.0796
vn -0.0857 0.9963 -0.0098
vn 0.0415 0.9985 0.0353
vn -0.0960 0.9601 -0.2626
vn 0.0622 0.9863 -0.1527
vn -0.0258 0.9994 -0.0237
vn -0.0042 0.9987 0.0514
vn 0.0809 0.9512 -0.2978
vn 0.0191 0.9974 -0.0700
vn 0.0635 0.9980 -0.0034
vn -0.0345 0.9994 -0.0065
vn 0.0957 0.9843 -0.1484
vn -0.0406 0.9981 -0.0461
vn 0.0991 0.9910 -0.0896
vn 0.0765 0.9688 -0.2356
vn 0.0047 0.9967 0.0806
vn 0.0706 0.9973 0.0210
vn -0.0477 0.9532 -0.2985
vn 0.0478 0.9981 0.0382
vn 0.1131 0.9936 -0.0040
vn 0.1100 0.9934 -0.0312
vn 0.1478 0.9764 -0.1572
vn 0.1467 0.9869 -0.0673
vn 0.1935 0.9675 -0.1629
vn 0.1090 0.9700 -0.2171
vn 0.1188 0.9929 0.0093
vn -0.0389 0.9992 -0.0134
vn -0.0704 0.9538 -0.2920
vn 0.0664 0.9838 -0.1668
vn -0.0630 0.9970 0.0449
vn -0.0584 0.9967 0.0564
vn -0.0177 0.9996 -0.0230
vn 0.1258 0.9921 -0.0005
vn -0.0492 0.9849 -0.1659
vn 0.0529 0.9772 -0.2055
vn -0.1350 0.9700 -0.2022
vn 0.0183 0.9965 -0.0814
vn -0.1505 0.9762 -0.1559
vn -0.0059 0.9996 -0.0280
vn 0.1020 0.9928 -0.0625
vn -0.0142 0.9986 -0.0500
vn -0.1182 0.9863 0.1154
vn -0.0000 1.0000 -0.0000
vn 0.0498 0.9951 -0.0855
vn -0.2965 0.8676 -0.3993
vn -0.0397 0.9988 0.0285
vn 0.0032 0.9926 -0.1213
vn 0.0564 0.9941 -0.0931
vn -0.0532 0.9982 -0.0281
vn -0.0184 0.9998 0.0084
vn 0.0473 0.9985 -0.0266
vn 0.0738 0.9970 -0.0235
vn -0.0564 0.9974 0.0439
vn -0.1840 0.9200 -0.3459
vn -0.0830 0.9613 -0.2628
vn 0.0336 0.9992 0.0205
vn 0.0675 0.9877 -0.1412
vn 0.0686 0.9817 -0.1779
vn 0.0108 0.9908 -0.1349
vn -0.1194 0.9917 0.0472
vn -0.0693 0.9973 -0.0238
vn -0.0484 0.9980 0.0405
vn -0.0008 0.9909 -0.1345
vn -0.0970 0.9705 -0.2209
vn -0.0270 0.9990 0.0346
vn 0.0261 0.9984 0.0508
vn -0.0190 0.9918 -0.1264
vn 0.0046 0.9662 -0.2579
vn -0.0366 0.9895 -0.1402
vn -0.0982 0.9946 0.0333
vn -0.1176 0.9930 0.0136
vn -0.0960 0.9894 0.1093
vn -0.0179 0.9907 -0.1346
vn 0.0981 0.9806 -0.1699
vn 0.0537 0.9906 -0.1258
vn -0.0951 0.9928 0.0729
vn -0.0350 0.9912 -0.1278
vn -0.0717 0.9911 -0.1125
vn -0.0401 0.9632 -0.2659
vn -0.0502 0.9906 -0.1271
vn -0.1673 0.9820 0.0879
vn -0.1535 0.9771 0.1474
vn -0.1431 0.9829 -0.1160
vn -0.0981 0.9808 -0.1684
vn -0.0263 0.9909 -0.1319
vn -0.0048 0.9987 0.0499
vn -0.0223 0.9948 -0.0995
vn 0.0597 0.9952 -0.0779
vn 0.0852 0.9598 -0.2676
vn 0.1333 0.9903 0.0402
vn 0.2968 0.9519 -0.0760
vn 0.2033 0.9667 -0.1552
vn -0.0837 0.9964 -0.0120
vn -0.0605 0.9654 -0.2536
vn -0.0199 0.9990 -0.0392
vn -0.0922 0.9957 -0.0043
vn 0.0497 0.9938 -0.0994
vn -0.0607 0.9630 -0.2624
vn -0.1352 0.9750 -0.1764
vn -0.0353 0.9986 0.0405
vn -0.0906 0.9861 -0.1393
vn 0.0405 0.9866 -0.1583
vn 0.0995 0.9946 -0.0298
vn 0.0660 0.9947 -0.0794
vn -0.0264 0.9989 -0.0382
vn -0.0055 1.0000 -0.0050
vn 0.0838 0.9863 0.1417
vn 0.0600 0.9573 -0.2827
vn 0.0586 0.9924 -0.1085
vn 0.0016 0.9979 0.0648
vn 0.0958 0.9848 -0.1447
vn -0.0375 0.9992 -0.0106
vn -0.0995 0.9950 0.0087
vn 0.0842 0.9935 -0.0762
vn -0.0085 0.9894 -0.1449
vn 0.0728 0.9973 -0.0130
vn -0.0495 0.9890 0.1394
vn -0.0287 0.9582 -0.2847
vn 0.1080 0.9928 -0.0514
vn 0.1084 0.9941 -0.0077
vn 0.1566 0.9877 0.0009
vn 0.1394 0.9791 -0.1483
vn 0.0995 0.9947 -0.0257
vn 0.1222 0.9886 -0.0884
vn 0.1205 0.9654 -0.2312
vn -0.0032 0.9965 0.0837
vn -0.0805 0.9962 -0.0334
vn 0.0656 0.9869 -0.1471
vn -0.0598 0.9980 0.0225
vn -0.0561 0.9977 0.0375
vn -0.0145 0.9998 0.0155
vn 0.1063 0.9817 -0.1578
vn 0.1957 0.9787 -0.0626
vn 0.0296 0.9959 -0.0856
vn -0.1698 0.9141 -0.3683
vn 0.0192 0.9996 -0.0222
vn -0.2184 0.9292 -0.2981
vn -0.0126 0.9967 -0.0806
vn 0.1024 0.9796 -0.1730
vn -0.0168 0.9987 0.0474
vn -0.1187 0.9912 0.0586
vn -0.0000 0.9998 -0.0221
vn -0.0499 0.9976 -0.0473
vn -0.2887 0.8862 -0.3624
vn -0.1458 0.9550 -0.2581
vn 0.0001 0.9998 -0.0183
vn 0.0828 0.9717 -0.2211
vn -0.0360 0.9816 -0.1877
vn -0.0177 0.9997 0.0144
vn 0.0445 0.9971 -0.0611
vn 0.0680 0.9962 -0.0535
vn -0.0604 0.9918 0.1125
vn 0.0499 0.9980 -0.0388
vn -0.0855 0.9719 -0.2194
vn 0.0373 0.9978 -0.0551
vn 0.0750 0.9961 0.0458
vn 0.0451 0.9908 -0.1274
vn 0.0105 0.9748 -0.2226
vn -0.1184 0.9929 0.0106
vn -0.0705 0.9974 0.0116
vn -0.0492 0.9988 -0.0075
vn 0.0170 0.9996 -0.0238
vn -0.1960 0.9798 0.0394
vn -0.0205 0.9910 -0.1322
vn 0.0539 0.9971 -0.0541
vn 0.0474 0.9965 0.0689
vn 0.0226 0.9882 -0.1515
vn -0.0331 0.9768 -0.2117
vn -0.1028 0.9663 -0.2360
vn -0.1182 0.9919 0.0474
vn -0.0954 0.9950 0.0298
vn -0.0226 0.9990 0.0397
vn -0.0000 0.9927 -0.1208
vn 0.0538 0.9904 -0.1273
vn -0.0937 0.9951 0.0310
vn -0.0683 0.9966 0.0458
vn -0.0735 0.9816 -0.1763
vn -0.0281 0.9679 -0.2496
vn -0.0624 0.9720 -0.2267
vn -0.1758 0.9842 0.0230
vn -0.1339 0.9901 0.0418
vn -0.1231 0.9860 0.1127
vn -0.0000 0.9998 -0.0185
vn -0.0254 0.9947 -0.0995
vn 0.0029 0.9950 -0.0995
vn -0.0256 0.9972 0.0708
vn 0.0589 0.9820 -0.1795
vn 0.0222 0.9850 -0.1710
vn 0.1796 0.9805 -0.0799
vn 0.3008 0.9493 -0.0912
vn 0.1802 0.9831 0.0315
vn -0.1437 0.9783 0.1491
vn -0.0995 0.9946 -0.0298
vt 5.025455 0.007013
vt 0.007013 5.025455
vt 0.007013 0.007013
vt 10.043896 0.007013
vt 5.025455 5.025455
vt 15.062337 0.007013
vt 10.043896 5.025455
vt 20.080778 5.025455
vt 15.062337 5.025455
vt 25.099218 0.007013
vt 20.080778 0.007013
vt 30.117661 0.007013
vt 25.099218 5.025455
vt 35.136086 5.025455
vt 30.117661 5.025455
vt 40.154526 0.007013
vt 35.136086 0.007013
vt 45.172966 5.025455
vt 40.154526 5.025455
vt 45.172966 0.007013
vt 50.191406 5.025455
vt 0.007013 10.043896
vt 10.043896 10.043896
vt 5.025455 10.043896
vt 15.062337 10.043896
vt 25.099218 10.043896
vt 20.080778 10.043896
vt 30.117661 10.043896
vt 35.136086 10.043896
vt 40.154526 10.043896
vt 45.172966 10.043896
vt 50.191406 10.043896
vt 5.025455 15.062337
vt 0.007013 15.062337
vt 10.043896 15.062337
vt 15.062337 15.062337
vt 20.080778 15.062337
vt 30.117661 15.062337
vt 25.099218 15.062337
vt 35.136086 15.062337
vt 45.172966 15.062337
vt 40.154526 15.062337
vt 50.191406 15.062337
vt 5.025455 20.080778
vt 0.007013 20.080778
vt 10.043896 20.080778
vt 15.062337 20.080778
vt 20.080778 20.080778
vt 30.117661 20.080778
vt 25.099218 20.080778
vt 35.136086 20.080778
vt 40.154526 20.080778
vt 45.172966 20.080778
vt 50.191406 20.080778
vt 0.007013 25.099218
vt 5.025455 25.099218
vt 10.043896 25.099218
vt 15.062337 25.099218
vt 20.080778 25.099218
vt 30.117661 25.099218
vt 25.099218 25.099218
vt 35.136086 25.099218
vt 40.154526 25.099218
vt 45.172966 25.099218
vt 0.007013 30.117661
vt 5.025455 30.117661
vt 15.062337 30.117661
vt 10.043896 30.117661
vt 20.080778 30.117661
vt 25.099218 30.117661
vt 35.136086 30.117661
vt 30.117661 30.117661
vt 40.154526 30.117661
vt 45.172966 30.117661
vt 50.191406 30.117661
vt 0.007013 35.136101
vt 5.025455 35.136101
vt 10.043896 35.136101
vt 20.080778 35.136101
vt 15.062337 35.136101
vt 30.117661 35.136101
vt 25.099218 35.136101
vt 35.136086 35.136101
vt 45.172966 35.136101
vt 40.154526 35.136101
vt 50.191406 35.136101
vt 0.007013 40.154541
vt 10.043896 40.154541
vt 5.025455 40.154541
vt 20.080778 40.154541
vt 15.062337 40.154541
vt 25.099218 40.154541
vt 35.136086 40.154541
vt 30.117661 40.154541
vt 45.172966 40.154541
vt 40.154526 40.154541
vt 5.025455 45.172981
vt 0.007013 45.172981
vt 10.043896 45.172981
vt 15.062337 45.172981
vt 25.099218 45.172981
vt 20.080778 45.172981
vt 30.117661 45.172981
vt 35.136086 45.172981
vt 40.154526 45.172981
vt 45.172966 45.172981
vt 50.191406 40.154541
vt 0.007013 50.191422
vt 5.025455 50.191422
vt 15.062337 50.191422
vt 10.043896 50.191422
vt 20.080778 50.191422
vt 25.099218 50.191422
vt 35.136086 50.191422
vt 30.117661 50.191422
vt 40.154526 50.191422
vt 45.172966 50.191422
vt 50.191406 45.172981
vt 50.191406 0.007013
vt 50.191406 25.099218
vt 50.191406 50.191422
s 0
f 2/1/1 12/2/1 1/3/1
f 3/4/2 13/5/2 2/1/2
f 4/6/3 14/7/3 3/4/3
f 4/6/4 16/8/4 15/9/4
f 6/10/5 16/8/5 5/11/5
f 7/12/6 17/13/6 6/10/6
f 7/12/7 19/14/7 18/15/7
f 9/16/8 19/14/8 8/17/8
f 9/16/9 21/18/9 20/19/9
f 10/20/10 22/21/10 21/18/10
f 13/5/11 23/22/11 12/2/11
f 13/5/12 25/23/12 24/24/12
f 15/9/13 25/23/13 14/7/13
f 16/8/14 26/25/14 15/9/14
f 16/8/15 28/26/15 27/27/15
f 17/13/16 29/28/16 28/26/16
f 18/15/17 30/29/17 29/28/17
f 19/14/18 31/30/18 30/29/18
f 20/19/19 32/31/19 31/30/19
f 21/18/20 33/32/20 32/31/20
f 23/22/21 35/33/21 34/34/21
f 24/24/22 36/35/22 35/33/22
f 25/23/23 37/36/23 36/35/23
f 26/25/24 38/37/24 37/36/24
f 28/26/25 38/37/25 27/27/25
f 28/26/26 40/38/26 39/39/26
f 30/29/27 40/38/27 29/28/27
f 31/30/28 41/40/28 30/29/28
f 31/30/29 43/41/29 42/42/29
f 32/31/30 44/43/30 43/41/30
f 34/34/31 46/44/31 45/45/31
f 35/33/32 47/46/32 46/44/32
f 36/35/33 48/47/33 47/46/33
f 38/37/34 48/47/34 37/36/34
f 39/39/35 49/48/35 38/37/35
f 39/39/36 51/49/36 50/50/36
f 40/38/37 52/51/37 51/49/37
f 41/40/38 53/52/38 52/51/38
f 42/42/39 54/53/39 53/52/39
f 43/41/40 55/54/40 54/53/40
f 46/44/41 56/55/41 45/45/41
f 47/46/42 57/56/42 46/44/42
f 48/47/43 58/57/43 47/46/43
f 49/48/44 59/58/44 48/47/44
f 50/50/45 60/59/45 49/48/45
f 50/50/46 62/60/46 61/61/46
f 51/49/47 63/62/47 62/60/47
f 52/51/48 64/63/48 63/62/48
f 53/52/49 65/64/49 64/63/49
f 55/54/50 65/64/50 54/53/50
f 57/56/51 67/65/51 56/55/51
f 58/57/52 68/66/52 57/56/52
f 58/57/53 70/67/53 69/68/53
f 59/58/54 71/69/54 70/67/54
f 61/61/55 71/69/55 60/59/55
f 62/60/56 72/70/56 61/61/56
f 62/60/57 74/71/57 73/72/57
f 63/62/58 75/73/58 74/71/58
f 64/63/59 76/74/59 75/73/59
f 65/64/60 77/75/60 76/74/60
f 68/66/61 78/76/61 67/65/61
f 69/68/62 79/77/62 68/66/62
f 70/67/63 80/78/63 69/68/63
f 70/67/64 82/79/64 81/80/64
f 72/70/65 82/79/65 71/69/65
f 72/70/66 84/81/66 83/82/66
f 73/72/67 85/83/67 84/81/67
f 75/73/68 85/83/68 74/71/68
f 75/73/69 87/84/69 86/85/69
f 76/74/70 88/86/70 87/84/70
f 79/77/71 89/87/71 78/76/71
f 79/77/72 91/88/72 90/89/72
f 81/80/73 91/88/73 80/78/73
f 81/80/74 93/90/74 92/91/74
f 82/79/75 94/92/75 93/90/75
f 84/81/76 94/92/76 83/82/76
f 84/81/77 96/93/77 95/94/77
f 86/85/78 96/93/78 85/83/78
f 86/85/79 98/95/79 97/96/79
f 88/86/80 98/95/80 87/84/80
f 89/87/81 101/97/81 100/98/81
f 90/89/82 102/99/82 101/97/82
f 91/88/83 103/100/83 102/99/83
f 93/90/84 103/100/84 92/91/84
f 93/90/85 105/101/85 104/102/85
f 94/92/86 106/103/86 105/101/86
f 95/94/87 107/104/87 106/103/87
f 96/93/88 108/105/88 107/104/88
f 97/96/89 109/106/89 108/105/89
f 99/107/90 109/106/90 98/95/90
f 101/97/91 111/108/91 100/98/91
f 102/99/92 112/109/92 101/97/92
f 102/99/93 114/110/93 113/111/93
f 103/100/94 115/112/94 114/110/94
f 105/101/95 115/112/95 104/102/95
f 106/103/96 116/113/96 105/101/96
f 106/103/97 118/114/97 117/115/97
f 107/104/98 119/116/98 118/114/98
f 108/105/99 120/117/99 119/116/99
f 110/118/100 120/117/100 109/106/100
f 2/1/101 13/5/101 12/2/101
f 3/4/102 14/7/102 13/5/102
f 4/6/103 15/9/103 14/7/103
f 4/6/104 5/11/104 16/8/104
f 6/10/105 17/13/105 16/8/105
f 7/12/106 18/15/106 17/13/106
f 7/12/107 8/17/107 19/14/107
f 9/16/108 20/19/108 19/14/108
f 9/16/109 10/20/109 21/18/109
f 10/20/110 11/119/110 22/21/110
f 13/5/111 24/24/111 23/22/111
f 13/5/112 14/7/112 25/23/112
f 15/9/113 26/25/113 25/23/113
f 16/8/114 27/27/114 26/25/114
f 16/8/115 17/13/115 28/26/115
f 17/13/116 18/15/116 29/28/116
f 18/15/117 19/14/117 30/29/117
f 19/14/118 20/19/118 31/30/118
f 20/19/119 21/18/119 32/31/119
f 21/18/120 22/21/120 33/32/120
f 23/22/121 24/24/121 35/33/121
f 24/24/122 25/23/122 36/35/122
f 25/23/123 26/25/123 37/36/123
f 26/25/124 27/27/124 38/37/124
f 28/26/125 39/39/125 38/37/125
f 28/26/126 29/28/126 40/38/126
f 30/29/127 41/40/127 40/38/127
f 31/30/128 42/42/128 41/40/128
f 31/30/129 32/31/129 43/41/129
f 32/31/130 33/32/130 44/43/130
f 34/34/131 35/33/131 46/44/131
f 35/33/132 36/35/132 47/46/132
f 36/35/133 37/36/133 48/47/133
f 38/37/134 49/48/134 48/47/134
f 39/39/135 50/50/135 49/48/135
f 39/39/136 40/38/136 51/49/136
f 40/38/137 41/40/137 52/51/137
f 41/40/138 42/42/138 53/52/138
f 42/42/139 43/41/139 54/53/139
f 43/41/140 44/43/140 55/54/140
f 46/44/141 57/56/141 56/55/141
f 47/46/142 58/57/142 57/56/142
f 48/47/143 59/58/143 58/57/143
f 49/48/144 60/59/144 59/58/144
f 50/50/145 61/61/145 60/59/145
f 50/50/146 51/49/146 62/60/146
f 51/49/147 52/51/147 63/62/147
f 52/51/148 53/52/148 64/63/148
f 53/52/149 54/53/149 65/64/149
f 55/54/150 66/120/150 65/64/150
f 57/56/151 68/66/151 67/65/151
f 58/57/152 69/68/152 68/66/152
f 58/57/153 59/58/153 70/67/153
f 59/58/154 60/59/154 71/69/154
f 61/61/155 72/70/155 71/69/155
f 62/60/156 73/72/156 72/70/156
f 62/60/157 63/62/157 74/71/157
f 63/62/158 64/63/158 75/73/158
f 64/63/159 65/64/159 76/74/159
f 65/64/160 66/120/160 77/75/160
f 68/66/161 79/77/161 78/76/161
f 69/68/162 80/78/162 79/77/162
f 70/67/163 81/80/163 80/78/163
f 70/67/164 71/69/164 82/79/164
f 72/70/165 83/82/165 82/79/165
f 72/70/166 73/72/166 84/81/166
f 73/72/167 74/71/167 85/83/167
f 75/73/168 86/85/168 85/83/168
f 75/73/169 76/74/169 87/84/169
f 76/74/170 77/75/170 88/86/170
f 79/77/171 90/89/171 89/87/171
f 79/77/172 80/78/172 91/88/172
f 81/80/173 92/91/173 91/88/173
f 81/80/174 82/79/174 93/90/174
f 82/79/175 83/82/175 94/92/175
f 84/81/176 95/94/176 94/92/176
f 84/81/177 85/83/177 96/93/177
f 86/85/178 97/96/178 96/93/178
f 86/85/179 87/84/179 98/95/179
f 88/86/180 99/107/180 98/95/180
f 89/87/181 90/89/181 101/97/181
f 90/89/182 91/88/182 102/99/182
f 91/88/183 92/91/183 103/100/183
f 93/90/184 104/102/184 103/100/184
f 93/90/185 94/92/185 105/101/185
f 94/92/186 95/94/186 106/103/186
f 95/94/187 96/93/187 107/104/187
f 96/93/188 97/96/188 108/105/188
f 97/96/189 98/95/189 109/106/189
f 99/107/190 110/118/190 109/106/190
f 101/97/191 112/109/191 111/108/191
f 102/99/192 113/111/192 112/109/192
f 102/99/193 103/100/193 114/110/193
f 103/100/194 104/102/194 115/112/194
f 105/101/195 116/113/195 115/112/195
f 106/103/196 117/115/196 116/113/196
f 106/103/197 107/104/197 118/114/197
f 107/104/198 108/105/198 119/116/198
f 108/105/199 109/106/199 120/117/199
f 110/118/200 121/121/200 120/117/200
