# Blender 5.1.1
# www.blender.org
o Grid
v 100.000000 0.000000 100.000000
v 100.000000 -2.000000 79.999992
v 100.000000 0.000000 60.000004
v 100.000000 -2.000000 39.999996
v 100.000000 -6.000000 19.999998
v 100.000000 -5.000000 -2.863166
v 100.000000 -6.000000 -21.989000
v 100.000000 -2.000000 -42.402851
v 100.000000 0.000000 -62.335979
v 100.000000 -2.000000 -82.099686
v 100.000000 0.000000 -100.000000
v 79.999992 -2.000000 100.000000
v 86.639008 3.594175 77.118713
v 83.523712 4.453687 56.788742
v 78.432381 7.039939 39.297047
v 79.999992 0.800000 19.999998
v 76.038452 2.000000 -1.899369
v 81.414665 2.000000 -16.761902
v 77.527916 2.000000 -42.156368
v 76.956955 2.000000 -61.310333
v 76.626114 3.000000 -82.042984
v 79.999992 2.000000 -100.000000
v 60.000004 0.000000 100.000000
v 63.810074 -2.000000 78.119293
v 61.440636 6.460540 57.776505
v 59.590576 5.100951 39.733753
v 60.000004 2.300000 19.999998
v 66.748650 5.000000 -8.507975
v 62.252701 5.000000 -15.932398
v 62.041443 6.000000 -34.319157
v 57.447971 5.000000 -61.002995
v 57.153111 5.000000 -80.347855
v 60.000004 4.000000 -100.000000
v 39.999996 -2.000000 100.000000
v 40.932102 -4.000000 78.918114
v 42.539745 7.400876 58.878864
v 34.324409 3.278261 38.076908
v 39.999996 3.300000 19.999998
v 44.435467 9.520993 -1.387044
v 46.311302 9.118082 -14.251063
v 40.407242 8.640974 -35.801487
v 38.360531 8.293400 -60.146118
v 38.257782 7.000000 -78.940392
v 39.999996 3.000000 -100.000000
v 19.999998 -6.000000 100.000000
v 19.999643 -2.744069 80.666962
v 14.796136 1.675758 58.304661
v 30.700891 3.401500 39.405952
v 23.199997 2.900000 12.799997
v 19.717264 9.287122 -5.717203
v 19.078983 10.659789 -18.198629
v 20.104834 9.686963 -38.346081
v 19.247454 8.594769 -58.547771
v 20.089357 9.000000 -76.844170
v 19.999998 5.000000 -100.000000
v 0.000000 -5.000000 100.000000
v -6.191570 2.857072 76.731667
v 5.990675 2.460923 60.416634
v 1.846924 2.838306 39.829350
v 5.499999 6.000000 27.299997
v 0.511270 8.250000 0.266294
v 0.566273 8.775847 -18.493168
v -0.019977 8.250000 -38.889458
v -0.874228 9.000000 -58.608215
v -1.977856 11.000000 -76.837112
v 0.000000 8.968600 -100.000000
v -20.000004 -6.000000 100.000000
v -15.143169 2.516062 81.459335
v -15.756723 3.560815 68.631050
v -18.994509 2.848730 39.193630
v -21.669159 5.000000 21.517271
v -19.484884 9.372472 -1.766068
v -18.950745 9.152434 -16.376328
v -20.241114 10.000000 -37.294212
v -20.662107 9.448126 -54.876457
v -20.575968 11.717727 -78.012001
v -20.000004 10.528000 -100.000000
v -39.999996 -2.000000 100.000000
v -37.097355 2.094647 80.734970
v -36.347431 2.848187 67.599464
v -39.081944 1.369986 39.937534
v -33.648304 5.167318 15.976581
v -38.286282 9.166421 -1.752914
v -36.560825 11.247441 -16.894884
v -34.469589 10.516642 -37.798950
v -39.596619 10.378572 -54.558521
v -40.306995 9.588804 -74.858459
v -39.999996 9.700000 -100.000000
v -60.000004 0.000000 100.000000
v -58.708405 2.650260 79.928146
v -57.761677 5.243534 61.916222
v -54.420258 -1.774228 45.148903
v -51.999992 4.300000 18.899996
v -57.746674 8.422370 -2.557563
v -54.149414 13.318848 -16.410709
v -51.394184 10.190820 -38.161888
v -56.588917 10.848682 -54.805458
v -59.374664 8.958036 -75.347099
v -60.000004 11.292000 -100.000000
v -80.000008 -2.000000 100.000000
v -80.161789 1.554017 79.397148
v -78.785667 3.953385 61.093159
v -79.516846 2.501917 40.384102
v -80.000008 6.200000 19.999998
v -77.661812 7.028704 11.211122
v -78.176788 13.818566 -13.307974
v -76.268509 16.514893 -35.072590
v -70.215164 16.072176 -59.560883
v -77.976105 12.511905 -73.690887
v -80.000008 14.464000 -100.000000
v -100.000000 0.000000 100.000000
v -100.000000 2.000000 79.999992
v -100.000000 4.000000 59.999996
v -100.000000 3.000000 39.999996
v -100.000000 5.000000 19.999998
v -100.000000 8.968600 -2.863200
v -100.000000 10.528000 -21.989435
v -100.000000 9.700000 -42.402996
v -100.000000 11.292000 -62.335999
v -100.000000 14.464000 -82.099998
v -100.000000 12.000000 -100.000000
vn -0.0973 0.9729 0.2096
vn 0.3675 0.9254 0.0925
vn 0.2771 0.9561 -0.0956
vn 0.3807 0.8884 -0.2564
vn 0.3216 0.9460 0.0414
vn 0.2827 0.9537 0.1023
vn 0.4302 0.8859 0.1736
vn 0.1754 0.9796 0.0983
vn 0.0884 0.9950 0.0466
vn 0.2082 0.9720 0.1086
vn 0.0992 0.9924 -0.0734
vn -0.2341 0.9692 0.0769
vn 0.0865 0.9927 -0.0837
vn -0.1044 0.9438 -0.3137
vn 0.0747 0.9964 0.0411
vn 0.2478 0.9647 0.0896
vn 0.1536 0.9878 -0.0235
vn 0.2144 0.9740 -0.0734
vn 0.1525 0.9873 0.0452
vn 0.0990 0.9944 -0.0363
vn -0.0989 0.9893 -0.1076
vn -0.0589 0.8697 0.4901
vn 0.0449 0.9958 -0.0796
vn -0.0706 0.9973 -0.0210
vn 0.0497 0.9931 0.1058
vn 0.1980 0.9802 -0.0018
vn 0.2547 0.9657 0.0496
vn 0.1228 0.9921 -0.0245
vn 0.1666 0.9836 -0.0686
vn 0.0904 0.9798 -0.1786
vn -0.1935 0.9675 0.1629
vn 0.0737 0.9815 0.1768
vn -0.1999 0.9766 -0.0790
vn 0.0245 0.9994 -0.0258
vn -0.1719 0.9209 0.3500
vn -0.0288 0.9934 0.1107
vn 0.0630 0.9970 -0.0449
vn 0.0584 0.9967 -0.0564
vn 0.0177 0.9996 0.0230
vn 0.0884 0.9815 -0.1699
vn 0.0492 0.9849 0.1659
vn 0.1854 0.9713 0.1488
vn 0.1350 0.9700 0.2022
vn -0.0154 0.9705 0.2404
vn 0.3576 0.9015 0.2437
vn -0.0452 0.9986 0.0279
vn -0.1003 0.9935 -0.0531
vn -0.0723 0.9965 0.0410
vn 0.0201 0.9995 0.0231
vn 0.0900 0.9928 -0.0794
vn -0.0456 0.9123 0.4071
vn 0.0048 0.9967 0.0809
vn 0.0397 0.9988 -0.0285
vn -0.0032 0.9926 0.1213
vn -0.0564 0.9941 0.0931
vn 0.0532 0.9982 0.0281
vn 0.0164 0.9995 -0.0262
vn 0.0836 0.9959 -0.0333
vn 0.0426 0.9934 0.1064
vn 0.0418 0.9977 -0.0529
vn 0.1753 0.8764 0.4485
vn -0.0210 0.9982 0.0561
vn -0.0336 0.9992 -0.0205
vn -0.0675 0.9877 0.1412
vn -0.0686 0.9817 0.1779
vn -0.0108 0.9908 0.1349
vn 0.1171 0.9926 0.0330
vn 0.0370 0.9991 -0.0195
vn 0.0484 0.9980 -0.0405
vn -0.1161 0.9916 -0.0567
vn 0.0970 0.9705 0.2209
vn 0.0235 0.9980 0.0586
vn 0.1944 0.9181 -0.3455
vn -0.1264 0.9689 0.2126
vn -0.0157 0.9811 0.1927
vn -0.0433 0.9904 0.1312
vn 0.1125 0.9854 -0.1275
vn -0.0202 0.9987 0.0458
vn 0.0282 0.9988 -0.0398
vn -0.0353 0.9948 0.0951
vn -0.0981 0.9806 0.1699
vn -0.0537 0.9906 0.1258
vn -0.0585 0.9960 -0.0677
vn 0.1199 0.9647 0.2343
vn 0.0717 0.9911 0.1125
vn 0.1147 0.9580 0.2629
vn 0.0369 0.9913 0.1260
vn 0.2419 0.9696 -0.0372
vn 0.4515 0.7744 -0.4431
vn 0.1945 0.9770 0.0876
vn 0.0981 0.9808 0.1684
vn 0.0263 0.9909 0.1319
vn 0.0048 0.9987 -0.0499
vn 0.0223 0.9948 0.0995
vn -0.0597 0.9952 0.0779
vn -0.0852 0.9598 0.2676
vn -0.1333 0.9903 -0.0402
vn -0.2968 0.9519 0.0760
vn -0.1707 0.9729 0.1561
vn 0.1385 0.9811 -0.1351
vn 0.4013 0.9114 -0.0911
vn 0.2608 0.9654 0.0009
vn 0.3858 0.9223 0.0241
vn 0.3163 0.9302 -0.1860
vn 0.2805 0.9599 0.0019
vn 0.3834 0.9223 -0.0482
vn 0.1749 0.9842 -0.0268
vn 0.0864 0.9963 -0.0026
vn 0.2079 0.9732 -0.0985
vn 0.0994 0.9944 -0.0367
vn -0.2276 0.9591 0.1684
vn 0.1005 0.9227 0.3721
vn -0.0969 0.9801 0.1731
vn 0.0741 0.9876 -0.1386
vn 0.2115 0.9671 0.1417
vn 0.1502 0.9845 -0.0909
vn 0.2730 0.9608 0.0491
vn 0.1519 0.9884 -0.0045
vn 0.1020 0.9948 -0.0016
vn -0.0901 0.9911 -0.0980
vn 0.0679 0.9240 0.3764
vn -0.0597 0.9834 -0.1713
vn 0.0495 0.9890 -0.1394
vn 0.2856 0.9027 0.3218
vn 0.2336 0.9620 -0.1415
vn 0.1248 0.9906 -0.0561
vn 0.1668 0.9838 -0.0656
vn 0.1051 0.9945 -0.0016
vn -0.0499 0.9971 -0.0580
vn 0.0520 0.9944 -0.0920
vn -0.1873 0.8602 0.4743
vn -0.0332 0.9828 -0.1817
vn -0.0214 0.9998 -0.0055
vn -0.0561 0.9618 0.2681
vn 0.0598 0.9980 -0.0225
vn 0.0561 0.9977 -0.0375
vn 0.0145 0.9998 -0.0155
vn 0.1013 0.9925 -0.0689
vn 0.0979 0.9792 -0.1779
vn 0.1610 0.9473 0.2770
vn 0.1009 0.9936 0.0512
vn -0.0192 0.9996 0.0222
vn 0.1285 0.9902 -0.0549
vn -0.0264 0.9958 0.0878
vn -0.1024 0.9882 0.1139
vn -0.0706 0.9972 -0.0237
vn 0.0203 0.9983 -0.0548
vn 0.0898 0.9906 0.1032
vn 0.1919 0.9670 -0.1678
vn 0.1168 0.9500 0.2897
vn 0.0576 0.9982 0.0187
vn -0.0001 0.9998 0.0183
vn -0.0828 0.9717 0.2211
vn 0.0360 0.9816 0.1877
vn 0.0177 0.9997 -0.0144
vn 0.0889 0.9954 0.0348
vn 0.0295 0.9989 0.0367
vn 0.0322 0.9947 0.0977
vn 0.0775 0.9937 -0.0805
vn -0.0255 0.9786 0.2042
vn -0.0386 0.9958 0.0829
vn -0.0750 0.9961 -0.0458
vn -0.0451 0.9908 0.1274
vn -0.0105 0.9748 0.2226
vn 0.1184 0.9929 -0.0106
vn 0.0374 0.9988 -0.0312
vn 0.0485 0.9983 -0.0325
vn -0.0915 0.9911 0.0969
vn -0.0414 0.9991 0.0039
vn 0.0205 0.9910 0.1322
vn 0.0717 0.9867 0.1458
vn -0.2109 0.9770 -0.0314
vn -0.0226 0.9882 0.1515
vn -0.0467 0.9717 0.2314
vn 0.1189 0.9260 0.3582
vn -0.0184 0.9992 -0.0368
vn 0.0279 0.9995 -0.0168
vn -0.0307 0.9957 -0.0875
vn 0.0793 0.9968 0.0054
vn -0.0538 0.9904 0.1273
vn -0.0661 0.9881 0.1388
vn 0.2202 0.9147 -0.3389
vn 0.0735 0.9816 0.1763
vn 0.0521 0.9832 0.1749
vn 0.0643 0.9355 0.3474
vn 0.2321 0.9665 -0.1096
vn 0.3369 0.9392 0.0663
vn 0.1766 0.9777 -0.1139
vn 0.1563 0.9858 0.0611
vn 0.0254 0.9947 0.0995
vn -0.0029 0.9950 0.0995
vn 0.0256 0.9972 -0.0708
vn -0.0589 0.9820 0.1795
vn -0.0222 0.9850 0.1710
vn -0.1796 0.9805 0.0799
vn -0.3008 0.9493 0.0912
vn -0.1532 0.9866 -0.0557
vn 0.2136 0.9131 -0.3474
vn -0.1219 0.9891 0.0828
vt 0.007013 0.007013
vt 5.025455 5.025455
vt 0.007013 5.025455
vt 10.043896 0.007013
vt 5.025455 0.007013
vt 15.062337 0.007013
vt 10.043896 5.025455
vt 20.080778 5.025455
vt 15.062337 5.025455
vt 25.099218 0.007013
vt 20.080778 0.007013
vt 30.117661 5.025455
vt 25.099218 5.025455
vt 35.136086 0.007013
vt 30.117661 0.007013
vt 40.154526 0.007013
vt 35.136086 5.025455
vt 45.172966 5.025455
vt 40.154526 5.025455
vt 50.191406 0.007013
vt 45.172966 0.007013
vt 5.025455 10.043896
vt 0.007013 10.043896
vt 15.062337 10.043896
vt 10.043896 10.043896
vt 20.080778 10.043896
vt 25.099218 10.043896
vt 30.117661 10.043896
vt 40.154526 10.043896
vt 35.136086 10.043896
vt 50.191406 10.043896
vt 45.172966 10.043896
vt 0.007013 15.062337
vt 10.043896 15.062337
vt 5.025455 15.062337
vt 20.080778 15.062337
vt 15.062337 15.062337
vt 30.117661 15.062337
vt 25.099218 15.062337
vt 40.154526 15.062337
vt 35.136086 15.062337
vt 45.172966 15.062337
vt 50.191406 15.062337
vt 5.025455 20.080778
vt 0.007013 20.080778
vt 10.043896 20.080778
vt 15.062337 20.080778
vt 20.080778 20.080778
vt 25.099218 20.080778
vt 30.117661 20.080778
vt 35.136086 20.080778
vt 40.154526 20.080778
vt 45.172966 20.080778
vt 50.191406 20.080778
vt 0.007013 25.099218
vt 5.025455 25.099218
vt 10.043896 25.099218
vt 20.080778 25.099218
vt 15.062337 25.099218
vt 30.117661 25.099218
vt 25.099218 25.099218
vt 40.154526 25.099218
vt 35.136086 25.099218
vt 50.191406 25.099218
vt 45.172966 25.099218
vt 5.025455 30.117661
vt 0.007013 30.117661
vt 10.043896 30.117661
vt 15.062337 30.117661
vt 20.080778 30.117661
vt 25.099218 30.117661
vt 30.117661 30.117661
vt 40.154526 30.117661
vt 35.136086 30.117661
vt 50.191406 30.117661
vt 45.172966 30.117661
vt 0.007013 35.136101
vt 10.043896 35.136101
vt 5.025455 35.136101
vt 20.080778 35.136101
vt 15.062337 35.136101
vt 30.117661 35.136101
vt 25.099218 35.136101
vt 40.154526 35.136101
vt 35.136086 35.136101
vt 45.172966 35.136101
vt 0.007013 40.154541
vt 5.025455 40.154541
vt 15.062337 40.154541
vt 10.043896 40.154541
vt 20.080778 40.154541
vt 25.099218 40.154541
vt 35.136086 40.154541
vt 30.117661 40.154541
vt 40.154526 40.154541
vt 50.191406 40.154541
vt 45.172966 40.154541
vt 5.025455 45.172981
vt 0.007013 45.172981
vt 10.043896 45.172981
vt 15.062337 45.172981
vt 25.099218 45.172981
vt 20.080778 45.172981
vt 30.117661 45.172981
vt 35.136086 45.172981
vt 45.172966 45.172981
vt 40.154526 45.172981
vt 0.007013 50.191422
vt 5.025455 50.191422
vt 15.062337 50.191422
vt 10.043896 50.191422
vt 20.080778 50.191422
vt 25.099218 50.191422
vt 35.136086 50.191422
vt 30.117661 50.191422
vt 40.154526 50.191422
vt 45.172966 50.191422
vt 50.191406 50.191422
vt 50.191406 5.025455
vt 50.191406 35.136101
vt 50.191406 45.172981
s 0
f 1/1/1 13/2/1 12/3/1
f 3/4/2 13/2/2 2/5/2
f 4/6/3 14/7/3 3/4/3
f 4/6/4 16/8/4 15/9/4
f 6/10/5 16/8/5 5/11/5
f 6/10/6 18/12/6 17/13/6
f 8/14/7 18/12/7 7/15/7
f 9/16/8 19/17/8 8/14/8
f 9/16/9 21/18/9 20/19/9
f 11/20/10 21/18/10 10/21/10
f 12/3/11 24/22/11 23/23/11
f 14/7/12 24/22/12 13/2/12
f 14/7/13 26/24/13 25/25/13
f 16/8/14 26/24/14 15/9/14
f 17/13/15 27/26/15 16/8/15
f 18/12/16 28/27/16 17/13/16
f 19/17/17 29/28/17 18/12/17
f 19/17/18 31/29/18 30/30/18
f 21/18/19 31/29/19 20/19/19
f 21/18/20 33/31/20 32/32/20
f 24/22/21 34/33/21 23/23/21
f 24/22/22 36/34/22 35/35/22
f 26/24/23 36/34/23 25/25/23
f 26/24/24 38/36/24 37/37/24
f 28/27/25 38/36/25 27/26/25
f 28/27/26 40/38/26 39/39/26
f 30/30/27 40/38/27 29/28/27
f 30/30/28 42/40/28 41/41/28
f 31/29/29 43/42/29 42/40/29
f 32/32/30 44/43/30 43/42/30
f 34/33/31 46/44/31 45/45/31
f 35/35/32 47/46/32 46/44/32
f 36/34/33 48/47/33 47/46/33
f 37/37/34 49/48/34 48/47/34
f 38/36/35 50/49/35 49/48/35
f 39/39/36 51/50/36 50/49/36
f 40/38/37 52/51/37 51/50/37
f 41/41/38 53/52/38 52/51/38
f 42/40/39 54/53/39 53/52/39
f 43/42/40 55/54/40 54/53/40
f 46/44/41 56/55/41 45/45/41
f 47/46/42 57/56/42 46/44/42
f 48/47/43 58/57/43 47/46/43
f 48/47/44 60/58/44 59/59/44
f 50/49/45 60/58/45 49/48/45
f 50/49/46 62/60/46 61/61/46
f 52/51/47 62/60/47 51/50/47
f 52/51/48 64/62/48 63/63/48
f 54/53/49 64/62/49 53/52/49
f 54/53/50 66/64/50 65/65/50
f 56/55/51 68/66/51 67/67/51
f 57/56/52 69/68/52 68/66/52
f 58/57/53 70/69/53 69/68/53
f 59/59/54 71/70/54 70/69/54
f 61/61/55 71/70/55 60/58/55
f 62/60/56 72/71/56 61/61/56
f 63/63/57 73/72/57 62/60/57
f 63/63/58 75/73/58 74/74/58
f 65/65/59 75/73/59 64/62/59
f 65/65/60 77/75/60 76/76/60
f 68/66/61 78/77/61 67/67/61
f 68/66/62 80/78/62 79/79/62
f 70/69/63 80/78/63 69/68/63
f 70/69/64 82/80/64 81/81/64
f 72/71/65 82/80/65 71/70/65
f 72/71/66 84/82/66 83/83/66
f 74/74/67 84/82/67 73/72/67
f 74/74/68 86/84/68 85/85/68
f 75/73/69 87/86/69 86/84/69
f 77/75/70 87/86/70 76/76/70
f 79/79/71 89/87/71 78/77/71
f 80/78/72 90/88/72 79/79/72
f 80/78/73 92/89/73 91/90/73
f 81/81/74 93/91/74 92/89/74
f 82/80/75 94/92/75 93/91/75
f 84/82/76 94/92/76 83/83/76
f 84/82/77 96/93/77 95/94/77
f 85/85/78 97/95/78 96/93/78
f 87/86/79 97/95/79 86/84/79
f 87/86/80 99/96/80 98/97/80
f 89/87/81 101/98/81 100/99/81
f 90/88/82 102/100/82 101/98/82
f 91/90/83 103/101/83 102/100/83
f 93/91/84 103/101/84 92/89/84
f 93/91/85 105/102/85 104/103/85
f 94/92/86 106/104/86 105/102/86
f 95/94/87 107/105/87 106/104/87
f 97/95/88 107/105/88 96/93/88
f 97/95/89 109/106/89 108/107/89
f 99/96/90 109/106/90 98/97/90
f 101/98/91 111/108/91 100/99/91
f 102/100/92 112/109/92 101/98/92
f 102/100/93 114/110/93 113/111/93
f 103/101/94 115/112/94 114/110/94
f 105/102/95 115/112/95 104/103/95
f 106/104/96 116/113/96 105/102/96
f 106/104/97 118/114/97 117/115/97
f 107/105/98 119/116/98 118/114/98
f 108/107/99 120/117/99 119/116/99
f 109/106/100 121/118/100 120/117/100
f 1/1/101 2/5/101 13/2/101
f 3/4/102 14/7/102 13/2/102
f 4/6/103 15/9/103 14/7/103
f 4/6/104 5/11/104 16/8/104
f 6/10/105 17/13/105 16/8/105
f 6/10/106 7/15/106 18/12/106
f 8/14/107 19/17/107 18/12/107
f 9/16/108 20/19/108 19/17/108
f 9/16/109 10/21/109 21/18/109
f 11/20/110 22/119/110 21/18/110
f 12/3/111 13/2/111 24/22/111
f 14/7/112 25/25/112 24/22/112
f 14/7/113 15/9/113 26/24/113
f 16/8/114 27/26/114 26/24/114
f 17/13/115 28/27/115 27/26/115
f 18/12/116 29/28/116 28/27/116
f 19/17/117 30/30/117 29/28/117
f 19/17/118 20/19/118 31/29/118
f 21/18/119 32/32/119 31/29/119
f 21/18/110 22/119/110 33/31/110
f 24/22/120 35/35/120 34/33/120
f 24/22/121 25/25/121 36/34/121
f 26/24/122 37/37/122 36/34/122
f 26/24/123 27/26/123 38/36/123
f 28/27/124 39/39/124 38/36/124
f 28/27/125 29/28/125 40/38/125
f 30/30/126 41/41/126 40/38/126
f 30/30/127 31/29/127 42/40/127
f 31/29/128 32/32/128 43/42/128
f 32/32/129 33/31/129 44/43/129
f 34/33/130 35/35/130 46/44/130
f 35/35/131 36/34/131 47/46/131
f 36/34/132 37/37/132 48/47/132
f 37/37/133 38/36/133 49/48/133
f 38/36/134 39/39/134 50/49/134
f 39/39/135 40/38/135 51/50/135
f 40/38/136 41/41/136 52/51/136
f 41/41/137 42/40/137 53/52/137
f 42/40/138 43/42/138 54/53/138
f 43/42/139 44/43/139 55/54/139
f 46/44/140 57/56/140 56/55/140
f 47/46/141 58/57/141 57/56/141
f 48/47/142 59/59/142 58/57/142
f 48/47/143 49/48/143 60/58/143
f 50/49/144 61/61/144 60/58/144
f 50/49/145 51/50/145 62/60/145
f 52/51/146 63/63/146 62/60/146
f 52/51/147 53/52/147 64/62/147
f 54/53/148 65/65/148 64/62/148
f 54/53/149 55/54/149 66/64/149
f 56/55/150 57/56/150 68/66/150
f 57/56/151 58/57/151 69/68/151
f 58/57/152 59/59/152 70/69/152
f 59/59/153 60/58/153 71/70/153
f 61/61/154 72/71/154 71/70/154
f 62/60/155 73/72/155 72/71/155
f 63/63/156 74/74/156 73/72/156
f 63/63/157 64/62/157 75/73/157
f 65/65/158 76/76/158 75/73/158
f 65/65/159 66/64/159 77/75/159
f 68/66/160 79/79/160 78/77/160
f 68/66/161 69/68/161 80/78/161
f 70/69/162 81/81/162 80/78/162
f 70/69/163 71/70/163 82/80/163
f 72/71/164 83/83/164 82/80/164
f 72/71/165 73/72/165 84/82/165
f 74/74/166 85/85/166 84/82/166
f 74/74/167 75/73/167 86/84/167
f 75/73/168 76/76/168 87/86/168
f 77/75/169 88/120/169 87/86/169
f 79/79/170 90/88/170 89/87/170
f 80/78/171 91/90/171 90/88/171
f 80/78/172 81/81/172 92/89/172
f 81/81/173 82/80/173 93/91/173
f 82/80/174 83/83/174 94/92/174
f 84/82/175 95/94/175 94/92/175
f 84/82/176 85/85/176 96/93/176
f 85/85/177 86/84/177 97/95/177
f 87/86/178 98/97/178 97/95/178
f 87/86/179 88/120/179 99/96/179
f 89/87/180 90/88/180 101/98/180
f 90/88/181 91/90/181 102/100/181
f 91/90/182 92/89/182 103/101/182
f 93/91/183 104/103/183 103/101/183
f 93/91/184 94/92/184 105/102/184
f 94/92/185 95/94/185 106/104/185
f 95/94/186 96/93/186 107/105/186
f 97/95/187 108/107/187 107/105/187
f 97/95/188 98/97/188 109/106/188
f 99/96/189 110/121/189 109/106/189
f 101/98/190 112/109/190 111/108/190
f 102/100/191 113/111/191 112/109/191
f 102/100/192 103/101/192 114/110/192
f 103/101/193 104/103/193 115/112/193
f 105/102/194 116/113/194 115/112/194
f 106/104/195 117/115/195 116/113/195
f 106/104/196 107/105/196 118/114/196
f 107/105/197 108/107/197 119/116/197
f 108/107/198 109/106/198 120/117/198
f 109/106/199 110/121/199 121/118/199
